# xmcd CD database file
#
# Track frame offsets:
#	150
#	15081
#	40758
#	61602
#	74670
#	100806
#	111876
#	135609
#	150054
#	175785
#	202245
#
# Disc length: 2737 seconds
#
# Revision: 0
# Processed by: cddbd v1.5.1PL0 Copyright (c) Steve Scherf et al.
# Submitted via: CDex 1.51
#
DISCID=840aaf0b
DTITLE=Buddy Zapata - Turo
DYEAR=2005
DGENRE=Blues
TTITLE0=Boat Ride
TTITLE1=Meteor Hill
TTITLE2=Keepin' Up With The Jonses's
TTITLE3=Deep Blue Sea
TTITLE4=Henri's Blues
TTITLE5=Z's Shuffle
TTITLE6=Father Son
TTITLE7=Box Of Letters
TTITLE8=Samson and Delilah
TTITLE9=Two Angels
TTITLE10=11
EXTD=YEAR: 2005
EXTT0=
EXTT1=
EXTT2=
EXTT3=
EXTT4=
EXTT5=
EXTT6=
EXTT7=
EXTT8=
EXTT9=
EXTT10=
PLAYORDER=
